<svg width="53" height="24" viewBox="0 0 53 24" fill="none" xmlns="http://www.w3.org/2000/svg"><path d="M.156 18V.867H3.79V15h6.95v3H.155zm15.637-6.574c0 1.297.21 2.277.633 2.941.43.664 1.125.996 2.086.996.953 0 1.636-.328 2.05-.984.422-.664.633-1.649.633-2.953 0-1.297-.21-2.27-.633-2.918-.421-.649-1.113-.973-2.074-.973-.953 0-1.64.324-2.062.973-.422.64-.633 1.613-.633 2.918zm9.059 0c0 2.133-.563 3.8-1.688 5.004-1.125 1.203-2.691 1.804-4.7 1.804-1.257 0-2.366-.273-3.327-.82-.961-.555-1.7-1.348-2.215-2.379-.516-1.031-.774-2.234-.774-3.61 0-2.14.559-3.804 1.676-4.991 1.117-1.188 2.688-1.782 4.711-1.782 1.258 0 2.367.274 3.328.82.961.548 1.7 1.333 2.215 2.356.516 1.024.774 2.223.774 3.598zm13.855-6.528v1.817l-2.05.527c.374.586.562 1.242.562 1.969 0 1.406-.492 2.504-1.477 3.293-.976.781-2.336 1.172-4.078 1.172l-.645-.035-.527-.059c-.367.281-.55.594-.55.938 0 .515.656.773 1.968.773h2.227c1.437 0 2.531.309 3.281.926.758.617 1.137 1.523 1.137 2.718 0 1.532-.64 2.72-1.922 3.563-1.274.844-3.106 1.266-5.496 1.266-1.828 0-3.227-.32-4.196-.961-.96-.633-1.441-1.524-1.441-2.672 0-.79.246-1.45.738-1.98.492-.532 1.215-.91 2.168-1.137a2.41 2.41 0 01-.96-.762c-.274-.36-.41-.738-.41-1.137 0-.5.144-.914.433-1.242.289-.336.707-.664 1.254-.984a3.549 3.549 0 01-1.641-1.43c-.398-.656-.598-1.43-.598-2.32 0-1.43.465-2.536 1.395-3.317.93-.781 2.258-1.172 3.984-1.172.367 0 .801.035 1.301.106.508.062.832.11.973.14h4.57zM28.594 19.852c0 .492.234.878.703 1.16.476.281 1.14.422 1.992.422 1.281 0 2.285-.176 3.012-.528.726-.351 1.09-.832 1.09-1.441 0-.492-.215-.832-.645-1.02-.43-.187-1.094-.28-1.992-.28h-1.852c-.656 0-1.207.151-1.652.456-.438.313-.656.723-.656 1.23zm1.3-10.665c0 .711.16 1.274.481 1.688.328.414.824.621 1.488.621.672 0 1.164-.207 1.477-.621.312-.414.469-.977.469-1.688 0-1.578-.649-2.367-1.946-2.367-1.312 0-1.968.79-1.968 2.367zm13.329 2.239c0 1.297.21 2.277.633 2.941.43.664 1.124.996 2.085.996.953 0 1.637-.328 2.051-.984.422-.664.633-1.649.633-2.953 0-1.297-.21-2.27-.633-2.918-.422-.649-1.113-.973-2.074-.973-.953 0-1.64.324-2.063.973-.421.64-.632 1.613-.632 2.918zm9.058 0c0 2.133-.562 3.8-1.687 5.004-1.125 1.203-2.692 1.804-4.7 1.804-1.257 0-2.367-.273-3.328-.82-.96-.555-1.699-1.348-2.214-2.379-.516-1.031-.774-2.234-.774-3.61 0-2.14.559-3.804 1.676-4.991 1.117-1.188 2.687-1.782 4.71-1.782 1.259 0 2.368.274 3.329.82.96.548 1.7 1.333 2.215 2.356.515 1.024.773 2.223.773 3.598z" fill="#3E4056"/></svg>