<svg width="53" height="24" viewBox="0 0 53 24" fill="none" xmlns="http://www.w3.org/2000/svg">
<path d="M0.15625 18V0.867188H3.78906V15H10.7383V18H0.15625ZM15.793 11.4258C15.793 12.7227 16.0039 13.7031 16.4258 14.3672C16.8555 15.0312 17.5508 15.3633 18.5117 15.3633C19.4648 15.3633 20.1484 15.0352 20.5625 14.3789C20.9844 13.7148 21.1953 12.7305 21.1953 11.4258C21.1953 10.1289 20.9844 9.15625 20.5625 8.50781C20.1406 7.85938 19.4492 7.53516 18.4883 7.53516C17.5352 7.53516 16.8477 7.85938 16.4258 8.50781C16.0039 9.14844 15.793 10.1211 15.793 11.4258ZM24.8516 11.4258C24.8516 13.5586 24.2891 15.2266 23.1641 16.4297C22.0391 17.6328 20.4727 18.2344 18.4648 18.2344C17.207 18.2344 16.0977 17.9609 15.1367 17.4141C14.1758 16.8594 13.4375 16.0664 12.9219 15.0352C12.4062 14.0039 12.1484 12.8008 12.1484 11.4258C12.1484 9.28516 12.707 7.62109 13.8242 6.43359C14.9414 5.24609 16.5117 4.65234 18.5352 4.65234C19.793 4.65234 20.9023 4.92578 21.8633 5.47266C22.8242 6.01953 23.5625 6.80469 24.0781 7.82812C24.5938 8.85156 24.8516 10.0508 24.8516 11.4258ZM38.707 4.89844V6.71484L36.6562 7.24219C37.0312 7.82812 37.2188 8.48438 37.2188 9.21094C37.2188 10.6172 36.7266 11.7148 35.7422 12.5039C34.7656 13.2852 33.4062 13.6758 31.6641 13.6758L31.0195 13.6406L30.4922 13.582C30.125 13.8633 29.9414 14.1758 29.9414 14.5195C29.9414 15.0352 30.5977 15.293 31.9102 15.293H34.1367C35.5742 15.293 36.668 15.6016 37.418 16.2188C38.1758 16.8359 38.5547 17.7422 38.5547 18.9375C38.5547 20.4688 37.9141 21.6562 36.6328 22.5C35.3594 23.3438 33.5273 23.7656 31.1367 23.7656C29.3086 23.7656 27.9102 23.4453 26.9414 22.8047C25.9805 22.1719 25.5 21.2812 25.5 20.1328C25.5 19.3438 25.7461 18.6836 26.2383 18.1523C26.7305 17.6211 27.4531 17.2422 28.4062 17.0156C28.0391 16.8594 27.7188 16.6055 27.4453 16.2539C27.1719 15.8945 27.0352 15.5156 27.0352 15.1172C27.0352 14.6172 27.1797 14.2031 27.4688 13.875C27.7578 13.5391 28.1758 13.2109 28.7227 12.8906C28.0352 12.5938 27.4883 12.1172 27.082 11.4609C26.6836 10.8047 26.4844 10.0312 26.4844 9.14062C26.4844 7.71094 26.9492 6.60547 27.8789 5.82422C28.8086 5.04297 30.1367 4.65234 31.8633 4.65234C32.2305 4.65234 32.6641 4.6875 33.1641 4.75781C33.6719 4.82031 33.9961 4.86719 34.1367 4.89844H38.707ZM28.5938 19.8516C28.5938 20.3438 28.8281 20.7305 29.2969 21.0117C29.7734 21.293 30.4375 21.4336 31.2891 21.4336C32.5703 21.4336 33.5742 21.2578 34.3008 20.9062C35.0273 20.5547 35.3906 20.0742 35.3906 19.4648C35.3906 18.9727 35.1758 18.6328 34.7461 18.4453C34.3164 18.2578 33.6523 18.1641 32.7539 18.1641H30.9023C30.2461 18.1641 29.6953 18.3164 29.25 18.6211C28.8125 18.9336 28.5938 19.3438 28.5938 19.8516ZM29.8945 9.1875C29.8945 9.89844 30.0547 10.4609 30.375 10.875C30.7031 11.2891 31.1992 11.4961 31.8633 11.4961C32.5352 11.4961 33.0273 11.2891 33.3398 10.875C33.6523 10.4609 33.8086 9.89844 33.8086 9.1875C33.8086 7.60938 33.1602 6.82031 31.8633 6.82031C30.5508 6.82031 29.8945 7.60938 29.8945 9.1875ZM43.2227 11.4258C43.2227 12.7227 43.4336 13.7031 43.8555 14.3672C44.2852 15.0312 44.9805 15.3633 45.9414 15.3633C46.8945 15.3633 47.5781 15.0352 47.9922 14.3789C48.4141 13.7148 48.625 12.7305 48.625 11.4258C48.625 10.1289 48.4141 9.15625 47.9922 8.50781C47.5703 7.85938 46.8789 7.53516 45.918 7.53516C44.9648 7.53516 44.2773 7.85938 43.8555 8.50781C43.4336 9.14844 43.2227 10.1211 43.2227 11.4258ZM52.2812 11.4258C52.2812 13.5586 51.7188 15.2266 50.5938 16.4297C49.4688 17.6328 47.9023 18.2344 45.8945 18.2344C44.6367 18.2344 43.5273 17.9609 42.5664 17.4141C41.6055 16.8594 40.8672 16.0664 40.3516 15.0352C39.8359 14.0039 39.5781 12.8008 39.5781 11.4258C39.5781 9.28516 40.1367 7.62109 41.2539 6.43359C42.3711 5.24609 43.9414 4.65234 45.9648 4.65234C47.2227 4.65234 48.332 4.92578 49.293 5.47266C50.2539 6.01953 50.9922 6.80469 51.5078 7.82812C52.0234 8.85156 52.2812 10.0508 52.2812 11.4258Z" fill="#3E4056"/>
</svg>
